<svg width="1122" height="1034" viewBox="0 0 1122 1034" fill="none" xmlns="http://www.w3.org/2000/svg">
<rect width="1122" height="1034" rx="204" fill="#1A2539"/>
<g filter="url(#filter0_d_237_2)">
<path d="M476.6 668.027L437.496 703.643H755.754C755.553 693.188 754.376 682.475 752.366 672.537C751.619 668.946 750.758 665.414 749.811 661.938C745.992 648.065 740.508 634.882 733.503 622.675L822.908 542.568C847.226 577.523 864.022 618.108 870.855 661.938C871.458 665.414 871.946 668.975 872.377 672.537C873.697 683.796 874.386 695.256 874.386 706.889C874.386 710.996 874.272 715.017 874.099 719.096V751.495C874.099 786.565 845.676 815 810.62 815H247.632V758.244C247.632 723.031 262.475 689.483 288.544 665.816L367.815 593.809L451.248 518.039L489.405 483.371L595.749 386.806L679.814 308.968H366.035C366.551 316.465 367.556 325.254 369.021 332.435C369.767 336.025 370.6 339.529 371.547 343.033C375.595 357.796 381.567 371.756 389.204 384.623L299.971 464.615C274.878 429.172 257.537 387.811 250.531 343.062C249.928 339.558 249.469 335.996 249.038 332.463C248.177 325.225 247.603 317.872 247.287 310.462H247V253.505C247 218.435 275.452 190 310.508 190H874.358V254.798C874.358 290.213 859.313 323.961 832.986 347.657L720.009 449.249L634.106 526.483L571.488 582.779L476.571 668.085L476.6 668.027Z" fill="white"/>
</g>
<defs>
<filter id="filter0_d_237_2" x="243" y="190" width="635.386" height="633" filterUnits="userSpaceOnUse" color-interpolation-filters="sRGB">
<feFlood flood-opacity="0" result="BackgroundImageFix"/>
<feColorMatrix in="SourceAlpha" type="matrix" values="0 0 0 0 0 0 0 0 0 0 0 0 0 0 0 0 0 0 127 0" result="hardAlpha"/>
<feOffset dy="4"/>
<feGaussianBlur stdDeviation="2"/>
<feComposite in2="hardAlpha" operator="out"/>
<feColorMatrix type="matrix" values="0 0 0 0 0 0 0 0 0 0 0 0 0 0 0 0 0 0 0.25 0"/>
<feBlend mode="normal" in2="BackgroundImageFix" result="effect1_dropShadow_237_2"/>
<feBlend mode="normal" in="SourceGraphic" in2="effect1_dropShadow_237_2" result="shape"/>
</filter>
</defs>
</svg>
