<svg width="91" height="91" viewBox="0 0 91 91" fill="none" xmlns="http://www.w3.org/2000/svg">
<g clip-path="url(#clip0_1392_795)">
<path d="M62.5077 80.8336C61.7822 80.6736 61.2631 80.8995 60.2082 79.5246L55.7016 72.3472L42.7744 80.5974L42.8013 90.4672H80.0257L74.1455 81.1234L62.5077 80.8336Z" fill="#BF1A2F"/>
<path d="M32.8981 74.5398L10.2227 90.4671H37.2064L37.1781 80.0314L32.8981 74.5398Z" fill="#BF1A2F"/>
<path d="M15.515 79.901L30.7726 69.2578L31.045 56.503L19.3271 56.5083C18.7356 57.5126 18.9175 57.1909 18.7356 57.5126L11.8394 69.7165L15.515 79.901Z" fill="#BF1A2F"/>
<path d="M55.8842 56.503H36.6409L36.3555 69.8743L40.6145 75.3391L54.036 66.7735L55.8842 56.503Z" fill="#BF1A2F"/>
<path d="M12.88 56.503H1.91097C1.13717 56.503 0.509766 57.1304 0.509766 57.9042V66.0419L7.20439 66.5468L12.88 56.503Z" fill="#BF1A2F"/>
<path d="M89.0894 56.503L78.8955 78.1684L86.5745 90.4642C86.6087 90.5185 86.6036 90.5049 86.5824 90.4642L89.0881 90.4661C89.8625 90.4666 90.4904 89.8392 90.4904 89.0649V57.9042C90.4906 57.1304 89.8632 56.503 89.0894 56.503Z" fill="#BF1A2F"/>
<path d="M6.7645 72.1242L0.509766 71.6523V89.066C0.509766 89.8398 1.13717 90.4672 1.91097 90.4672H1.93944L10.8757 83.1935L6.7645 72.1242Z" fill="#BF1A2F"/>
<path d="M73.9576 75.5226L82.8805 56.5032H61.5619C61.5563 56.5452 61.5533 56.5868 61.5457 56.6288L59.5171 67.9028L64.148 75.2783L73.9576 75.5226Z" fill="#BF1A2F"/>
<path d="M33.5396 29.0876L28.4294 34.1979C27.3998 35.2274 27.3998 36.8964 28.4294 37.9259C29.4587 38.9554 31.1281 38.9554 32.1574 37.9259L37.2677 32.8156C38.2972 31.7861 38.2972 30.1171 37.2677 29.0876C36.2382 28.0581 34.569 28.0581 33.5396 29.0876Z" fill="#BF1A2F"/>
<path d="M45.5879 29.683C50.2549 29.683 54.0517 25.8862 54.0517 21.2192C53.5867 9.99054 37.5873 9.99388 37.124 21.2192C37.124 25.8862 40.9208 29.683 45.5879 29.683Z" fill="#BF1A2F"/>
<path d="M42.9517 35.5548V39.3778C43.091 42.8754 48.086 42.8728 48.224 39.3778V35.5548C48.0846 32.0572 43.0896 32.0598 42.9517 35.5548Z" fill="#BF1A2F"/>
<path d="M55.7725 14.1846C56.4472 14.1846 57.1218 13.9274 57.6364 13.4124L62.7467 8.30196C65.1215 5.7303 61.5875 2.19995 59.0187 4.5739L53.9084 9.68436C52.8789 10.7139 52.8789 12.3829 53.9084 13.4124C54.4231 13.9274 55.0978 14.1846 55.7725 14.1846Z" fill="#BF1A2F"/>
<path d="M45.5878 9.58138C47.0437 9.58138 48.224 8.40108 48.224 6.94522V3.12226C48.0846 -0.375404 43.0896 -0.372767 42.9517 3.12226V6.94522C42.9517 8.40108 44.132 9.58138 45.5878 9.58138Z" fill="#BF1A2F"/>
<path d="M33.5396 13.4126C34.5692 14.4421 36.2382 14.4421 37.2677 13.4126C38.2972 12.3833 38.2972 10.714 37.2677 9.68453L32.1574 4.57407C31.1281 3.54456 29.459 3.54473 28.4294 4.57407C27.3998 5.60358 27.3998 7.27262 28.4294 8.30213L33.5396 13.4126Z" fill="#BF1A2F"/>
<path d="M53.9084 29.0876C52.8789 30.1171 52.8789 31.7861 53.9084 32.8156L59.0187 37.9259C60.048 38.9554 61.7172 38.9554 62.7467 37.9259C63.7762 36.8964 63.7762 35.2274 62.7467 34.1979L57.6364 29.0876C56.6071 28.0581 54.9379 28.0581 53.9084 29.0876Z" fill="#BF1A2F"/>
<path d="M26.4704 23.8553H30.2934C33.791 23.716 33.7884 18.721 30.2934 18.583H26.4704C22.9727 18.7224 22.9754 23.7174 26.4704 23.8553Z" fill="#BF1A2F"/>
<path d="M57.7197 21.2192C57.7197 22.675 58.9 23.8553 60.3559 23.8553H64.1789C67.6765 23.716 67.6739 18.721 64.1789 18.583H60.3559C58.9 18.583 57.7197 19.7633 57.7197 21.2192Z" fill="#BF1A2F"/>
</g>
<defs>
<clipPath id="clip0_1392_795">
<rect width="90" height="90" fill="white" transform="translate(0.5 0.5)"/>
</clipPath>
</defs>
</svg>
