<svg width="91" height="90" viewBox="0 0 91 90" fill="none" xmlns="http://www.w3.org/2000/svg">
<g clip-path="url(#clip0_1392_825)">
<path d="M87.8633 68.5546H79.7773V76.6405C79.7773 78.0979 78.598 79.2772 77.1406 79.2772C75.6832 79.2772 74.5039 78.0979 74.5039 76.6405V68.5546H58.6836V76.6405C58.6836 78.0979 57.5043 79.2772 56.0469 79.2772C54.5895 79.2772 53.4102 78.0979 53.4102 76.6405V68.5546H37.5898V76.6405C37.5898 78.0979 36.4105 79.2772 34.9531 79.2772C33.4957 79.2772 32.3164 78.0979 32.3164 76.6405V68.5546H16.4961V76.6405C16.4961 78.0979 15.3168 79.2772 13.8594 79.2772C12.402 79.2772 11.2227 78.0979 11.2227 76.6405V68.5546H3.13672C1.67932 68.5546 0.5 69.7339 0.5 71.1913V87.3632C0.5 88.8206 1.67932 89.9999 3.13672 89.9999H21.7695V81.9139C21.7695 80.4565 22.9488 79.2772 24.4062 79.2772C25.8637 79.2772 27.043 80.4565 27.043 81.9139V89.9999H42.8633V81.9139C42.8633 80.4565 44.0426 79.2772 45.5 79.2772C46.9574 79.2772 48.1367 80.4565 48.1367 81.9139V89.9999H63.957V81.9139C63.957 80.4565 65.1363 79.2772 66.5938 79.2772C68.0512 79.2772 69.2305 80.4565 69.2305 81.9139V89.9999H87.8633C89.3207 89.9999 90.5 88.8206 90.5 87.3632V71.1913C90.5 69.7339 89.3207 68.5546 87.8633 68.5546Z" fill="#BF1A2F"/>
<path d="M8.74821 57.6986C9.19434 59.1219 10.7149 59.8521 12.0545 59.4187C13.4449 58.981 14.2148 57.5004 13.7745 56.1124L12.9757 53.5822C19.7932 57.6454 31.7316 63.2811 45.5 63.2811C59.0169 63.2811 70.7709 57.8491 77.6465 53.8063L76.9346 56.0611C76.4943 57.449 77.2642 58.9295 78.6546 59.3673C79.9943 59.8006 81.5146 59.0704 81.9609 57.6473L84.9184 48.2817C85.4226 46.7394 84.4196 45.141 82.8776 44.8654L73.6491 43.2174C72.2098 42.9599 70.8424 43.9126 70.5902 45.3495C70.3353 46.7837 71.288 48.1535 72.7222 48.4084L75.5141 48.9068C69.2625 52.6381 58.0796 58.0077 45.5 58.0077C32.9201 58.0077 21.7369 52.6379 15.4854 48.9064L17.9869 48.4599C19.4211 48.205 20.3739 46.8352 20.119 45.401C19.8666 43.9692 18.4916 43.0242 17.06 43.2689L7.83151 44.9169C6.27163 45.1966 5.29973 46.783 5.7819 48.3054L8.74821 57.6986Z" fill="#BF1A2F"/>
<path d="M45.5 52.7342C55.6762 52.7342 63.957 44.4534 63.957 34.2772C63.957 17.5583 48.0414 1.44954 47.3642 0.772427C46.3343 -0.257476 44.6656 -0.257476 43.6357 0.772427C42.9586 1.44954 27.043 17.5583 27.043 34.2772C27.043 44.4534 35.3238 52.7342 45.5 52.7342Z" fill="#BF1A2F"/>
</g>
<defs>
<clipPath id="clip0_1392_825">
<rect width="90" height="90" fill="white" transform="translate(0.5)"/>
</clipPath>
</defs>
</svg>
