<svg width="83" height="91" viewBox="0 0 83 91" fill="none" xmlns="http://www.w3.org/2000/svg">
<path d="M44.6343 74.7658C45.1968 73.4773 46.2321 72.3593 47.7597 71.3855C49.8093 70.0777 51.9503 69.5837 52.0083 69.5714C53.4268 69.2621 54.3286 67.8611 54.0245 66.4408C53.7169 65.017 52.3159 64.1117 50.8921 64.4175C50.7725 64.4421 47.9231 65.0679 45.079 66.8416C44.752 67.0455 44.4391 67.2564 44.1368 67.4744V59.6556C45.809 59.564 52.1069 59.4129 56.5786 54.9412C62.1227 49.397 61.2895 40.0086 61.2526 39.6113C61.1614 38.6652 60.5486 37.8225 59.6767 37.4439C58.8887 37.1252 58.013 37.202 57.1798 37.1732C54.1458 37.1732 47.7473 37.7164 43.5497 41.914C42.7376 42.7261 42.0608 43.6226 41.5001 44.5595C41.1374 43.9782 40.4674 42.9828 39.4505 41.914C35.6823 37.9531 29.3606 36.7325 24.1206 37.2382C22.8638 37.3595 21.8688 38.3545 21.7475 39.6113C21.7106 40.0086 20.8774 49.397 26.4216 54.9412C30.8933 59.4129 37.1912 59.564 38.8634 59.6556V67.4744C38.561 67.2564 38.2481 67.0455 37.9212 66.8416C35.077 65.0679 32.2276 64.4421 32.1081 64.4175C30.6843 64.1099 29.2833 65.017 28.9757 66.4408C28.6698 67.8646 29.5768 69.2673 31.0007 69.5732C31.0657 69.5873 36.6081 70.8265 38.3466 74.764C21.9065 75.6053 12.0203 82.5037 10.0968 86.1002C9.82202 86.6138 9.16319 87.8455 9.64852 88.9355C10.137 90.0327 11.5194 90.3897 12.0567 90.5H70.9434C71.4808 90.3894 72.8663 90.0312 73.3534 88.932C73.8373 87.8402 73.1734 86.6076 72.8964 86.0931C70.9615 82.5003 61.092 75.6155 44.6343 74.7658Z" fill="#BF1A2F"/>
<path d="M41.5 20.7148C47.0822 20.7148 51.6074 16.1896 51.6074 10.6074C51.6074 5.02525 47.0822 0.5 41.5 0.5C35.9178 0.5 31.3926 5.02525 31.3926 10.6074C31.3926 16.1896 35.9178 20.7148 41.5 20.7148Z" fill="#BF1A2F"/>
<path d="M38.8633 28.625V32.4922C38.8633 33.9484 40.0438 35.1289 41.5 35.1289C42.9562 35.1289 44.1367 33.9484 44.1367 32.4922V28.625C44.1367 27.1688 42.9562 25.9883 41.5 25.9883C40.0438 25.9883 38.8633 27.1688 38.8633 28.625Z" fill="#BF1A2F"/>
<path d="M24.1864 27.8846C24.7012 28.3995 25.3761 28.657 26.0507 28.657C26.7254 28.657 27.4004 28.3997 27.9151 27.8846L30.6495 25.1502C31.6792 24.1205 31.6792 22.4511 30.6495 21.4213C29.62 20.3916 27.9504 20.3916 26.9207 21.4213L24.1862 24.1558C23.1567 25.1855 23.1567 26.8549 24.1864 27.8846Z" fill="#BF1A2F"/>
<path d="M55.1365 28.0089C55.6514 28.5238 56.3262 28.7811 57.0008 28.7811C57.6755 28.7811 58.3505 28.5238 58.8652 28.0087C59.8949 26.979 59.8949 25.3096 58.8652 24.2799L56.1305 21.5454C55.101 20.5159 53.4314 20.5157 52.4017 21.5454C51.372 22.5751 51.372 24.2445 52.4017 25.2743L55.1365 28.0089Z" fill="#BF1A2F"/>
<path d="M59.6055 13.332H63.4727C64.9288 13.332 66.1094 12.1515 66.1094 10.6953C66.1094 9.23914 64.9288 8.05859 63.4727 8.05859H59.6055C58.1493 8.05859 56.9688 9.23914 56.9688 10.6953C56.9688 12.1515 58.1493 13.332 59.6055 13.332Z" fill="#BF1A2F"/>
<path d="M19.7031 13.1562H23.5703C25.0265 13.1562 26.207 11.9757 26.207 10.5195C26.207 9.06336 25.0265 7.88281 23.5703 7.88281H19.7031C18.247 7.88281 17.0664 9.06336 17.0664 10.5195C17.0664 11.9757 18.247 13.1562 19.7031 13.1562Z" fill="#BF1A2F"/>
<path d="M82.3218 65.1365C82.2051 63.6952 80.923 62.6047 79.4812 62.7212L76.3751 62.9726C79.5304 57.7326 81.2267 51.698 81.2267 45.5C81.2267 37.2839 78.2472 29.3597 72.8384 23.1863C71.8787 22.0912 70.2122 21.9822 69.1171 22.9419C68.022 23.9017 67.913 25.5664 68.8728 26.6615C73.4378 31.8716 75.9533 38.5619 75.9533 45.5C75.9533 50.5994 74.5945 55.5634 72.0615 59.9052L71.3074 56.8255C70.9611 55.4123 69.5337 54.5457 68.1187 54.8919C66.7054 55.2382 65.8388 56.6656 66.1851 58.0806L68.2699 66.5955C68.2488 66.49 68.2347 66.3845 68.2277 66.2791C68.3553 67.8328 69.7918 68.8709 71.2845 68.6767L79.9083 67.9771C81.3494 67.8593 82.4385 66.5772 82.3218 65.1365Z" fill="#BF1A2F"/>
<path d="M10.1619 67.8136C10.6822 68.4078 11.4117 68.7119 12.1465 68.7119C12.7635 68.7119 13.3822 68.4974 13.8832 68.058C14.9783 67.0982 15.0873 65.4335 14.1275 64.3384C9.56248 59.1283 7.04705 52.438 7.04705 45.4999C7.04705 40.4005 8.40584 35.4365 10.9388 31.0947L11.6929 34.1744C12.0371 35.5794 13.4766 36.4521 14.8816 36.108C16.2866 35.7638 17.1594 34.3243 16.8152 32.9193L14.7304 24.4044C14.4622 23.0124 13.0329 22.2745 11.7123 22.3232L3.09197 23.0228C1.65092 23.1406 0.561776 24.4227 0.678494 25.8634C0.795213 27.3047 2.07736 28.395 3.51912 28.2787L6.62693 28.0273C3.4699 33.2673 1.77361 39.3001 1.77361 45.4999C1.77361 53.716 4.7531 61.6419 10.1619 67.8136Z" fill="#BF1A2F"/>
</svg>
