<svg width="180" height="82" viewBox="0 0 180 82" fill="none" xmlns="http://www.w3.org/2000/svg">
<g clip-path="url(#clip0_447_348)">
<path fill-rule="evenodd" clip-rule="evenodd" d="M87.8198 0.163321C91.9976 0.0976389 94.7737 1.04739 96.1956 3.65208C98.8583 8.53003 96.2638 13.7967 91.8726 15.0576C84.8269 17.0804 79.2813 10.3438 82.2811 4.2559C82.9362 2.92655 84.1892 1.62216 85.5233 0.968419C86.1109 0.680328 86.6001 0.312624 87.8198 0.163321ZM5.75109 7.61047H53.9116C59.085 7.61047 69.635 6.75237 72.4868 8.88521C75.7507 11.3267 74.851 18.2284 74.851 23.8466V64.1015C74.851 69.5808 75.929 77.7499 72.757 80.2034C69.7141 82.5576 61.5612 81.6801 56.2082 81.6794H15.6804C8.45713 81.6801 2.3346 82.8616 0.48248 77.2514C-0.0285758 75.7036 0.144748 73.5332 0.144748 71.5486V25.3897C0.144748 20.704 -0.601031 13.1542 1.29304 10.2941C2.37573 8.65951 3.78543 8.43811 5.75096 7.6102L5.75109 7.61047ZM36.1469 19.754C34.7059 19.8439 33.2649 19.9334 31.824 20.0224C28.1962 20.6255 24.5823 21.0153 21.2867 21.7668C20.0464 22.0499 18.7887 22.1304 17.7743 22.639V67.3889C17.7743 68.1719 17.4944 70.1323 17.9094 70.6093H31.824C31.869 57.7962 31.914 44.9818 31.9591 32.1659L36.0118 31.7634C39.9555 31.1462 43.5482 32.3364 44.9279 34.38C47.8234 38.6698 46.8198 51.8036 46.8192 59.1367V67.7244C46.8192 68.4604 46.5787 70.2618 47.0219 70.6093C48.2602 70.6321 49.4986 70.6545 50.7369 70.6764H57.8968C58.8681 70.6764 60.1873 70.8059 60.9364 70.5422V51.6896C60.9364 40.7094 61.1755 32.1498 56.3433 25.9935C52.3599 20.9191 45.3398 19.7504 36.1468 19.7538L36.1469 19.754ZM132.13 20.2908C133.608 20.2693 135.168 20.221 136.318 20.5591C136.295 25.2555 136.273 29.9519 136.251 34.6483C130.59 34.4195 127.224 34.3417 124.497 37.9358C123.666 39.0321 122.959 40.5041 122.606 42.0284C122.094 44.2357 122.336 47.2689 122.336 49.8781V64.7724C122.313 66.8075 122.291 68.8426 122.268 70.8777C117.293 70.8556 112.317 70.8332 107.341 70.8106V35.5205C107.228 30.8469 107.116 26.1729 107.003 21.4984C107.048 21.4313 107.093 21.3642 107.138 21.2971C111.348 21.3199 115.559 21.3423 119.769 21.3642C119.972 24.1821 120.175 26.9999 120.377 29.8177C120.445 29.8406 120.512 29.8627 120.58 29.8848C121.231 29.3454 121.439 28.0264 121.863 27.2683C122.471 26.4189 123.079 25.5691 123.687 24.7188C125.089 22.9623 127.543 21.3884 129.969 20.6933C130.689 20.5589 131.409 20.4247 132.13 20.2905V20.2908ZM158 20.2908C170.494 20.1666 177.434 24.3525 179.818 34.1787C181.205 39.8989 180.493 48.5074 180.493 55.3125C180.561 58.8907 180.628 62.4689 180.696 66.0471C180.853 67.6573 181.011 69.2675 181.169 70.8777H171.847C170.665 70.8777 168.756 70.9705 167.795 70.7435C167.738 69.9981 167.259 66.4436 166.917 66.1142C166.849 66.0921 166.781 66.0699 166.714 66.0471C163.776 70.241 156.269 73.4755 148.882 71.4144C143.324 69.8646 136.852 63.3896 138.209 55.1783C139.889 45.0173 146.159 40.7818 155.907 38.7409C157.775 38.4953 159.644 38.2493 161.513 38.0029C162.796 37.9586 164.08 37.9139 165.363 37.8687C165.431 37.8244 165.498 37.7795 165.566 37.7345C165.68 29.0683 154.529 30.013 148.274 32.3001L144.424 34.1116C143.351 32.1888 143.219 29.5628 142.465 27.4024C142.217 26.694 141.562 25.3099 141.722 24.5846C142.244 23.7936 143.945 23.4038 144.896 23.0415C147.363 22.1036 150.099 21.4018 153.002 20.7604C154.668 20.6039 156.334 20.4473 158 20.2905V20.2908ZM82.0784 21.2971H92.4805C93.7659 21.2971 95.9301 20.9811 96.9386 21.4313C96.9156 37.9123 96.8931 54.3945 96.871 70.8777C91.8956 70.8556 86.9197 70.8332 81.9433 70.8106V25.8593C81.9433 24.4991 81.6481 22.3951 82.0784 21.2969V21.2971ZM164.958 49.3414L161.445 49.5426C157.416 50.1988 152.591 50.8938 153.88 56.1847C154.08 57.0052 154.502 57.6882 154.961 58.2645C156.308 59.9552 159.582 60.6617 161.715 59.2038C163.582 57.9284 165.513 52.5134 165.836 49.6768C165.723 49.5654 165.61 49.4536 165.498 49.3414H164.958Z" fill="#AAF000"/>
</g>
<defs>
<clipPath id="clip0_447_348">
<rect width="180" height="82" fill="white"/>
</clipPath>
</defs>
</svg>
