<svg width="49" height="48" viewBox="0 0 49 48" xmlns="http://www.w3.org/2000/svg">
<path d="M7.34195 2.43741C4.04221 2.43741 1.88477 4.60419 1.88477 7.45212C1.88477 10.2372 3.97794 12.4657 7.21533 12.4657H7.27795C10.6422 12.4657 12.736 10.2372 12.736 7.45212C12.6731 4.60419 10.6422 2.43741 7.34195 2.43741Z"/>
<path d="M2.45508 16.4282H12.1016V45.4503H2.45508V16.4282Z"/>
<path d="M35.7788 15.7471C30.5748 15.7471 27.0853 20.6371 27.0853 20.6371V16.4282H17.4385V45.4503H27.0847V29.2432C27.0847 28.3756 27.1476 27.5093 27.4025 26.8889C28.0999 25.1563 29.6869 23.3614 32.3519 23.3614C35.8425 23.3614 37.2386 26.0229 37.2386 29.9244V45.4503H46.8843V28.8095C46.8843 19.8952 42.125 15.7471 35.7788 15.7471Z"/>
</svg>
