<svg width="49" height="48" viewBox="0 0 49 48" fill="none" xmlns="http://www.w3.org/2000/svg">
<path d="M47.4192 12.3202C46.8661 10.2398 45.2448 8.59991 43.1888 8.03973C39.4326 7 24.4077 7 24.4077 7C24.4077 7 9.38332 7 5.62716 8.00031C3.61065 8.5599 1.94981 10.2401 1.39668 12.3202C0.408203 16.1199 0.408203 24 0.408203 24C0.408203 24 0.408203 31.9198 1.39668 35.6798C1.95039 37.7599 3.5711 39.3998 5.62745 39.96C9.42287 41 24.4082 41 24.4082 41C24.4082 41 39.4326 41 43.1888 39.9997C45.2451 39.4398 46.8661 37.7999 47.4198 35.7198C48.408 31.9198 48.408 24.04 48.408 24.04C48.408 24.04 48.4476 16.1199 47.4192 12.3202ZM19.6241 31.2799V16.7201L32.118 24L19.6241 31.2799Z" fill="#F0EDEE"/>
</svg>
