<svg width="49" height="48" viewBox="0 0 49 48" xmlns="http://www.w3.org/2000/svg">
<path fill-rule="evenodd" clip-rule="evenodd" d="M41.4147 6.97559C36.9025 2.47969 30.9016 0.00263672 24.5086 0C11.3352 0 0.613973 10.6696 0.608674 23.7835C0.606908 27.9756 1.70729 32.0678 3.79884 35.6748L0.408203 48L13.0779 44.6924C16.5689 46.5876 20.4992 47.5863 24.4989 47.5875H24.5089C37.6808 47.5875 48.4032 36.917 48.4082 23.8025C48.4109 17.4469 45.9272 11.4712 41.4147 6.97559ZM24.5086 43.5706H24.5003C20.936 43.5691 17.4403 42.6158 14.39 40.8149L13.6649 40.3863L6.1465 42.3492L8.15327 35.054L7.6808 34.3061C5.69228 31.1584 4.64223 27.5203 4.644 23.785C4.64812 12.8851 13.5595 4.01719 24.5165 4.01719C29.8224 4.01895 34.81 6.07793 38.5604 9.81475C42.3108 13.5516 44.3749 18.5186 44.3732 23.8011C44.3685 34.7019 35.4577 43.5706 24.5086 43.5706ZM35.4047 28.7643C34.8077 28.4666 31.8716 27.0293 31.324 26.8307C30.7771 26.6323 30.3785 26.5336 29.9808 27.1283C29.5825 27.723 28.4382 29.0619 28.0897 29.4583C27.7411 29.855 27.3932 29.9048 26.7959 29.6071C26.1986 29.3098 24.2746 28.6819 21.9934 26.6572C20.2183 25.0813 19.0199 23.1352 18.6714 22.5404C18.3234 21.9451 18.6684 21.6545 18.9334 21.3275C19.5798 20.5286 20.2272 19.691 20.4262 19.2946C20.6255 18.8979 20.5257 18.5508 20.3761 18.2534C20.2272 17.9561 19.0329 15.0308 18.5354 13.8404C18.0502 12.682 17.5583 12.8385 17.1915 12.8203C16.8436 12.803 16.4453 12.7995 16.047 12.7995C15.649 12.7995 15.002 12.948 14.4544 13.5434C13.9072 14.1384 12.3646 15.576 12.3646 18.5013C12.3646 21.4266 14.5045 24.2525 14.803 24.6492C15.1015 25.0459 19.014 31.0488 25.0043 33.6229C26.4291 34.2357 27.5413 34.6011 28.4088 34.875C29.8395 35.3273 31.1409 35.2635 32.1701 35.1105C33.3175 34.9397 35.7029 33.6727 36.201 32.2846C36.6985 30.8962 36.6985 29.7064 36.5489 29.4583C36.4 29.2105 36.0017 29.0619 35.4047 28.7643Z" />
</svg>
