<svg width="49" height="48" viewBox="0 0 49 48" xmlns="http://www.w3.org/2000/svg">
<g clip-path="url(#clip0_868_447)">
<path d="M48.3609 14.1121C48.2485 11.5617 47.836 9.80831 47.2452 8.28897C46.6357 6.67623 45.698 5.23235 44.4695 4.03204C43.2692 2.81305 41.8158 1.86584 40.2218 1.26587C38.6936 0.675059 36.9494 0.262625 34.399 0.150176C31.8295 0.0282037 31.0138 0 24.4969 0C17.98 0 17.1643 0.0282037 14.6043 0.140652C12.0539 0.253101 10.3005 0.665902 8.78153 1.25635C7.16842 1.86584 5.72453 2.80353 4.52423 4.03204C3.30524 5.23235 2.3584 6.68575 1.75806 8.27982C1.16725 9.80831 0.754812 11.5522 0.642363 14.1026C0.520391 16.6721 0.492188 17.4878 0.492188 24.0047C0.492188 30.5216 0.520391 31.3373 0.63284 33.8972C0.745289 36.4477 1.15809 38.2011 1.7489 39.7204C2.3584 41.3331 3.30524 42.777 4.52423 43.9773C5.72453 45.1963 7.17794 46.1435 8.772 46.7435C10.3005 47.3343 12.0444 47.7468 14.5952 47.8592C17.1547 47.972 17.9708 47.9999 24.4877 47.9999C31.0046 47.9999 31.8203 47.972 34.3803 47.8592C36.9307 47.7468 38.6841 47.3343 40.2031 46.7435C43.4289 45.4963 45.9793 42.9459 47.2265 39.7204C47.817 38.1919 48.2298 36.4477 48.3422 33.8972C48.4547 31.3373 48.4829 30.5216 48.4829 24.0047C48.4829 17.4878 48.4734 16.6721 48.3609 14.1121ZM44.0384 33.7097C43.9351 36.0539 43.5414 37.3198 43.2132 38.1637C42.4066 40.2548 40.747 41.9144 38.6559 42.721C37.812 43.0492 36.5369 43.4429 34.2019 43.5459C31.6702 43.6587 30.9109 43.6865 24.5064 43.6865C18.102 43.6865 17.3331 43.6587 14.8105 43.5459C12.4663 43.4429 11.2005 43.0492 10.3565 42.721C9.31593 42.3364 8.36873 41.7269 7.5999 40.9299C6.80287 40.1515 6.19337 39.2138 5.80878 38.1732C5.48059 37.3293 5.08684 36.0539 4.98391 33.7192C4.87109 31.1875 4.84326 30.4278 4.84326 24.0234C4.84326 17.6189 4.87109 16.8501 4.98391 14.3279C5.08684 11.9837 5.48059 10.7178 5.80878 9.87388C6.19337 8.8329 6.80287 7.88606 7.60942 7.11687C8.38741 6.31984 9.32509 5.71034 10.3661 5.32611C11.21 4.99792 12.4854 4.60417 14.8201 4.50088C17.3518 4.38843 18.1115 4.36023 24.5156 4.36023C30.9295 4.36023 31.6888 4.38843 34.2114 4.50088C36.5556 4.60417 37.8215 4.99792 38.6654 5.32611C39.706 5.71034 40.6532 6.31984 41.4221 7.11687C42.2191 7.89522 42.8286 8.8329 43.2132 9.87388C43.5414 10.7178 43.9351 11.9928 44.0384 14.3279C44.1509 16.8596 44.1791 17.6189 44.1791 24.0234C44.1791 30.4278 44.1509 31.178 44.0384 33.7097Z" />
<path d="M24.4975 11.6741C17.6902 11.6741 12.167 17.197 12.167 24.0047C12.167 30.8124 17.6902 36.3352 24.4975 36.3352C31.3053 36.3352 36.8281 30.8124 36.8281 24.0047C36.8281 17.197 31.3053 11.6741 24.4975 11.6741ZM24.4975 32.0032C20.0813 32.0032 16.499 28.4213 16.499 24.0047C16.499 19.588 20.0813 16.0062 24.4975 16.0062C28.9142 16.0062 32.496 19.588 32.496 24.0047C32.496 28.4213 28.9142 32.0032 24.4975 32.0032Z"/>
<path d="M40.1941 11.1866C40.1941 12.7763 38.9052 14.0652 37.3151 14.0652C35.7255 14.0652 34.4365 12.7763 34.4365 11.1866C34.4365 9.5966 35.7255 8.30801 37.3151 8.30801C38.9052 8.30801 40.1941 9.5966 40.1941 11.1866Z"/>
</g>
<defs>
<clipPath id="clip0_868_447">
<rect width="48" height="48" fill="none" transform="translate(0.408203)"/>
</clipPath>
</defs>
</svg>
