<svg width="49" height="48" viewBox="0 0 49 48" xmlns="http://www.w3.org/2000/svg">
<path d="M45.7586 5.42954e-08H3.05547C1.59326 0.000878964 0.40791 1.18682 0.408203 2.64961V45.3527C0.409082 46.8149 1.59502 48.0003 3.05781 48H26.0488V29.4375H19.8145V22.1719H26.0488V16.8249C26.0488 10.6242 29.8343 7.24922 35.3655 7.24922C38.0148 7.24922 40.2915 7.44668 40.9551 7.53486V14.0156H37.1409C34.1315 14.0156 33.5488 15.4456 33.5488 17.5444V22.1719H40.7441L39.8066 29.4375H33.5488V48H45.7586C47.2217 48.0003 48.4079 46.8147 48.4082 45.3516C48.4082 45.3513 48.4082 45.351 48.4082 45.3504V2.64727C48.4076 1.18506 47.2214 -0.000292914 45.7586 5.42954e-08Z" />
</svg>
