<svg width="91" height="91" viewBox="0 0 91 91" fill="none" xmlns="http://www.w3.org/2000/svg">
<g clip-path="url(#clip0_1392_817)">
<path d="M75.9856 31.0773C67.9824 31.0773 61.4712 37.5886 61.4712 45.5918C62.2009 64.8207 89.7732 64.8154 90.5001 45.5916C90.5001 37.5886 83.9889 31.0773 75.9856 31.0773ZM83.0012 43.7851L76.3132 50.9873C75.8169 51.5215 75.1216 51.8265 74.3926 51.8298H74.381C73.656 51.8298 72.9629 51.5313 72.4647 51.0043L68.9859 47.3239C66.6793 44.6951 70.3265 41.2516 72.8185 43.7013L74.3639 45.3362L79.1368 40.1967C80.1279 39.1296 81.7964 39.0677 82.8634 40.0588C83.9307 41.0494 83.9924 42.7179 83.0012 43.7851Z" fill="#BF1A2F"/>
<path d="M24.8459 52.594H22.209V57.8678H24.8459C28.3402 57.7349 28.3375 52.7257 24.8459 52.594Z" fill="#BF1A2F"/>
<path d="M56.1972 45.5918C56.1972 40.5481 58.0949 35.9401 61.2126 32.4417C59.056 28.9539 56.5179 25.2279 53.5932 21.265C45.5513 10.368 37.3923 1.53965 37.3108 1.45175C36.3205 0.335988 34.4332 0.335988 33.4429 1.45175C25.0192 10.0247 -0.807064 42.4695 0.55165 55.7504C1.51201 96.8903 58.5639 103.467 69.1714 64.1708C61.6071 61.3876 56.1972 54.1097 56.1972 45.5918ZM24.8461 63.1417H22.2092V68.7296C22.0794 72.2246 17.0638 72.222 16.9353 68.7296V49.9571C16.9353 48.5008 18.116 47.3202 19.5722 47.3202H24.8461C35.329 47.7191 35.3209 62.7465 24.8461 63.1417ZM53.8653 68.8643C53.7356 72.3593 48.72 72.3566 48.5915 68.8643V58.2941C48.5915 57.3579 47.8298 56.5961 46.8933 56.5961H43.3177V68.8643C43.1879 72.3593 38.1723 72.3566 38.0438 68.8643V44.5224C38.1736 41.0274 43.1892 41.0301 43.3177 44.5224V51.3223H46.8933C50.7378 51.3223 53.8653 54.4499 53.8653 58.2941V68.8643Z" fill="#BF1A2F"/>
</g>
<defs>
<clipPath id="clip0_1392_817">
<rect width="90" height="90" fill="white" transform="translate(0.5 0.5)"/>
</clipPath>
</defs>
</svg>
