<svg width="180" height="97" viewBox="0 0 180 97" fill="none" xmlns="http://www.w3.org/2000/svg">
<path d="M109.134 88.995C109.134 90.3014 108.079 91.3576 106.746 91.3576C105.441 91.3576 104.386 90.3014 104.386 88.995C104.386 87.6609 105.441 86.6047 106.746 86.6047C108.079 86.6047 109.134 87.6609 109.134 88.995Z" fill="#2A7F62"/>
<path d="M122.412 91.2464L122.273 90.4682C121.024 90.9685 119.469 91.3576 117.914 91.3576C113.165 91.3576 110.166 88.4947 110.166 84.2143C110.166 79.9339 113.082 77.071 117.858 77.071C119.358 77.071 121.024 77.5435 122.273 78.0438L122.412 77.2934L125.717 77.4601V91.2464H122.412ZM118.191 87.7721C119.691 87.7721 120.996 87.4385 121.968 87.0772V81.4348C120.913 81.0179 119.385 80.6566 118.191 80.6566C114.137 80.6566 113.943 83.2137 113.943 84.2143C113.943 85.2149 114.137 87.7721 118.191 87.7721Z" fill="#2A7F62"/>
<path d="M139.622 78.0438L139.761 77.2934L143.066 77.4601V90.6072C143.066 95.0544 140.039 97 135.263 97C133.041 97 130.82 96.6943 128.959 96.1662L129.848 92.7752C131.153 93.1087 133.402 93.3867 135.263 93.3867C139.123 93.3867 139.317 91.7745 139.317 90.6072V90.5794C138.123 91.0241 136.679 91.3576 135.263 91.3576C130.514 91.3576 127.515 88.4947 127.515 84.2143C127.515 79.9339 130.431 77.071 135.207 77.071C136.707 77.071 138.373 77.5435 139.622 78.0438ZM135.513 87.7721C137.04 87.7721 138.345 87.4385 139.317 87.0772V81.4348C138.262 81.0179 136.707 80.6566 135.513 80.6566C131.486 80.6566 131.292 83.2137 131.292 84.2143C131.292 85.2149 131.486 87.7721 135.513 87.7721Z" fill="#2A7F62"/>
<path d="M154.074 77.071C156.074 77.071 157.351 77.4323 157.351 77.4323L156.463 80.9901C156.463 80.9901 155.352 80.6566 153.741 80.6566C152.547 80.6566 150.798 81.0179 149.715 81.4348V91.2464H145.966V77.4601L149.27 77.2934L149.409 78.0716C150.742 77.5713 152.519 77.071 154.074 77.071Z" fill="#2A7F62"/>
<path d="M165.552 91.3576C160.61 91.3576 157.305 88.4947 157.305 84.2143C157.305 79.9339 160.61 77.071 165.552 77.071C170.495 77.071 173.8 79.9339 173.8 84.2143C173.8 88.4947 170.495 91.3576 165.552 91.3576ZM165.552 80.6566C161.498 80.6566 161.082 83.2137 161.082 84.2143C161.082 85.2149 161.498 87.7721 165.552 87.7721C169.607 87.7721 170.023 85.2149 170.023 84.2143C170.023 83.2137 169.607 80.6566 165.552 80.6566Z" fill="#2A7F62"/>
<path d="M118.304 63.3375L118.423 34.6027C118.423 33.3386 118.795 32.0852 119.563 31.082C120.587 29.7461 122.085 29.001 123.754 29.001H128.567L128.448 63.3402H118.306L118.304 63.3375Z" fill="#1A2539"/>
<path d="M174.478 15.7367L134.898 15.6169C133.157 15.6169 131.43 15.2441 130.048 14.4745C128.208 13.4493 127.182 11.9474 127.182 10.2751V5.4526L174.482 5.57243V15.7341L174.478 15.7367Z" fill="#1A2539"/>
<path d="M155.969 63.3557L155.849 29.4755C155.849 27.9851 155.477 26.5073 154.708 25.3244C153.684 23.7493 152.183 22.8708 150.512 22.8708H145.694L145.814 63.3588H155.966L155.969 63.3557Z" fill="#1A2539"/>
<path d="M109.441 58.0445V63.3588H66.9305V57.8769C66.9305 55.2104 69.0938 53.0443 71.7567 53.0443H104.445C107.2 53.0443 109.438 55.2849 109.438 58.0445H109.441Z" fill="#1A2539"/>
<path d="M118.296 5.45259V8.50838C118.296 12.9057 115.323 16.4779 111.664 16.4779H66.9232V5.45259H118.296Z" fill="#1A2539"/>
<path d="M66.9333 40.0792V28.9983H90.7344C93.7853 28.9983 96.2674 31.4838 96.2674 34.5387C96.2674 37.5937 93.7853 40.0792 90.7344 40.0792H66.9333Z" fill="#1A2539"/>
<path d="M21.2525 49.7418L17.6329 53.0416H47.0919C47.0733 52.0729 46.9643 51.0803 46.7783 50.1596C46.7092 49.827 46.6295 49.4996 46.5418 49.1776C46.1883 47.8923 45.6807 46.6709 45.0323 45.5399L53.3079 38.118C55.5588 41.3566 57.1135 45.1167 57.746 49.1776C57.8018 49.4996 57.847 49.8296 57.8869 50.1596C58.0091 51.2028 58.0729 52.2646 58.0729 53.3423C58.0729 53.7229 58.0623 54.0954 58.0463 54.4733V57.475C58.0463 60.7243 55.4153 63.3588 52.1705 63.3588H0.0584662V58.1004C0.0584662 54.8379 1.43242 51.7297 3.84548 49.5369L32.2813 23.6867L40.0626 16.475H11.0182C11.0661 17.1696 11.1591 17.9839 11.2946 18.6491C11.3637 18.9818 11.4408 19.3064 11.5285 19.6311C11.9032 20.9989 12.456 22.2922 13.1629 23.4844L4.90319 30.8957C2.58049 27.6118 0.975323 23.7798 0.326879 19.6338C0.271071 19.3091 0.22855 18.9791 0.188686 18.6518C0.10896 17.9812 0.0558087 17.2999 0.0265756 16.6134H0V11.3364C0 8.08711 2.63364 5.45259 5.87851 5.45259H58.0702V11.4561C58.0702 14.7373 56.6777 17.8641 54.2407 20.0595L21.2498 49.7471L21.2525 49.7418Z" fill="#1A2539"/>
<path d="M176.355 4.31401V1.12555H177.259C177.602 1.12555 177.868 1.19914 178.058 1.34632C178.251 1.49349 178.348 1.72512 178.348 2.0412C178.348 2.27765 178.284 2.46704 178.156 2.6094C178.031 2.75176 177.879 2.85309 177.7 2.91341L178.55 4.31401H178.163L177.379 2.99303H176.684V4.31401H176.355ZM176.681 2.71798H177.238C177.464 2.71798 177.651 2.66248 177.798 2.55149C177.947 2.44051 178.022 2.27162 178.022 2.04482C178.022 1.82284 177.952 1.66239 177.812 1.56346C177.673 1.46454 177.482 1.41509 177.241 1.41509H176.681V2.71798ZM177.285 5.42509C176.889 5.42509 176.525 5.35632 176.193 5.2188C175.862 5.07885 175.576 4.88584 175.332 4.63974C175.091 4.39122 174.903 4.1029 174.768 3.77476C174.635 3.44663 174.569 3.09316 174.569 2.71435C174.569 2.3259 174.639 1.9664 174.779 1.63585C174.919 1.3053 175.113 1.01818 175.361 0.774495C175.609 0.530806 175.897 0.341405 176.225 0.206291C176.553 0.0687636 176.906 0 177.285 0C177.673 0 178.032 0.0723828 178.362 0.217148C178.692 0.359501 178.979 0.556141 179.223 0.807068C179.468 1.05799 179.659 1.34753 179.794 1.67566C179.931 2.00138 180 2.34762 180 2.71435C180 3.09316 179.93 3.44783 179.79 3.77838C179.653 4.10652 179.46 4.39363 179.212 4.63974C178.966 4.88584 178.678 5.07885 178.348 5.2188C178.02 5.35632 177.665 5.42509 177.285 5.42509ZM177.285 5.16089C177.629 5.16089 177.949 5.09816 178.243 4.9727C178.539 4.84482 178.797 4.66869 179.017 4.4443C179.238 4.21991 179.411 3.96054 179.534 3.66619C179.656 3.36942 179.718 3.05214 179.718 2.71435C179.718 2.3814 179.658 2.06773 179.537 1.77338C179.417 1.47902 179.247 1.21965 179.027 0.995261C178.81 0.768464 178.554 0.591126 178.257 0.46325C177.961 0.332961 177.637 0.267816 177.285 0.267816C176.937 0.267816 176.616 0.329341 176.319 0.452392C176.025 0.575443 175.767 0.747955 175.545 0.96993C175.326 1.1919 175.155 1.45248 175.032 1.75166C174.909 2.04843 174.848 2.36933 174.848 2.71435C174.848 3.04973 174.907 3.36459 175.025 3.65895C175.143 3.9533 175.309 4.21388 175.524 4.44068C175.741 4.66507 175.997 4.8412 176.294 4.96907C176.593 5.09696 176.923 5.16089 177.285 5.16089Z" fill="#1A2539"/>
</svg>
