<svg width="120" height="41" viewBox="0 0 120 41" fill="none" xmlns="http://www.w3.org/2000/svg">
<path d="M81.3635 40.4853L81.4458 20.636C81.4458 19.7629 81.7017 18.8971 82.2299 18.204C82.9336 17.2812 83.9644 16.7665 85.1123 16.7665H88.4223L88.34 40.4871H81.3654L81.3635 40.4853Z" fill="#F0EDEE"/>
<path d="M119.998 7.60403L92.7761 7.52126C91.5786 7.52126 90.3912 7.26374 89.4408 6.73213C88.1753 6.02394 87.4694 4.98648 87.4694 3.8313L87.4694 0.500041L120 0.582818L120 7.60219L119.998 7.60403Z" fill="#F0EDEE"/>
<path d="M107.268 40.4978L107.186 17.0944C107.186 16.0649 106.929 15.044 106.401 14.2269C105.696 13.1389 104.664 12.532 103.515 12.532H100.202L100.284 40.5H107.266L107.268 40.4978Z" fill="#F0EDEE"/>
<path d="M75.2682 36.829V40.5H46.0316V36.7132C46.0316 34.8713 47.5194 33.375 49.3508 33.375H71.8321C73.7274 33.375 75.2664 34.9228 75.2664 36.829H75.2682Z" fill="#F0EDEE"/>
<path d="M81.3581 0.5V2.61085C81.3581 5.64843 79.3136 8.11599 76.7969 8.11599L46.0264 8.11599V0.5L81.3581 0.5Z" fill="#F0EDEE"/>
<path d="M46.0334 24.4191V16.7647H62.4026C64.5009 16.7647 66.208 18.4816 66.208 20.5919C66.208 22.7022 64.5009 24.4191 62.4026 24.4191H46.0334Z" fill="#F0EDEE"/>
<path d="M14.6165 31.0937L12.1271 33.3731H32.3876C32.3748 32.704 32.2999 32.0184 32.1719 31.3823C32.1244 31.1526 32.0696 30.9265 32.0093 30.704C31.7662 29.8162 31.4171 28.9724 30.9711 28.1912L36.6627 23.0643C38.2108 25.3015 39.28 27.8989 39.715 30.704C39.7534 30.9265 39.7845 31.1544 39.8119 31.3823C39.896 32.1029 39.9398 32.8364 39.9398 33.5809C39.9398 33.8437 39.9325 34.1011 39.9216 34.3621V36.4356C39.9216 38.6801 38.1121 40.5 35.8804 40.5H0.0402103V36.8676C0.0402103 34.6139 0.985154 32.4669 2.64474 30.9522L7.69114 26.3437L13.0026 21.4945L15.4316 19.2757L22.2016 13.0956L27.5532 8.11397H7.57782C7.61072 8.59374 7.67469 9.15624 7.76791 9.6158C7.81543 9.84558 7.86843 10.0698 7.92875 10.2941C8.18646 11.239 8.56663 12.1323 9.05281 12.9559L3.37219 18.0754C1.77474 15.807 0.670782 13.1599 0.224812 10.2959C0.18643 10.0717 0.157186 9.84374 0.12977 9.61764C0.0749375 9.15441 0.0383826 8.68382 0.0182774 8.20955H0V4.56434C0 2.31985 1.81129 0.5 4.04297 0.5H39.938V4.64706C39.938 6.9136 38.9803 9.07352 37.3042 10.5901L30.1121 17.0919L24.6435 22.0349L20.6572 25.6379L14.6146 31.0974L14.6165 31.0937Z" fill="#F0EDEE"/>
</svg>
