<svg width="100" height="34" viewBox="0 0 100 34" fill="none" xmlns="http://www.w3.org/2000/svg">
<path d="M67.803 33.9876L67.8715 17.1157C67.8715 16.3735 68.0848 15.6376 68.5249 15.0485C69.1113 14.2642 69.9704 13.8267 70.9269 13.8267H73.6852L73.6167 33.9892H67.8045L67.803 33.9876Z" fill="#1A2539"/>
<path d="M99.998 6.03857L77.3135 5.96822C76.3157 5.96822 75.3262 5.74932 74.5342 5.29746C73.4796 4.69549 72.8914 3.81365 72.8914 2.83175L72.8914 0.000175476L100 0.0705359L100 6.03701L99.998 6.03857Z" fill="#1A2539"/>
<path d="M89.3899 33.998L89.3213 14.1051C89.3213 13.23 89.1078 12.3623 88.6672 11.6677C88.0801 10.7429 87.2202 10.2271 86.2626 10.2271H83.5013L83.5699 33.9999H89.3884L89.3899 33.998Z" fill="#1A2539"/>
<path d="M62.7234 30.8798V34.0001H38.3596V30.7813C38.3596 29.2157 39.5995 27.9438 41.1256 27.9438H59.8599C61.4394 27.9438 62.7219 29.2595 62.7219 30.8798H62.7234Z" fill="#1A2539"/>
<path d="M67.7983 0V1.79423C67.7983 4.37617 66.0946 6.4736 63.9974 6.4736L38.3554 6.4736V0L67.7983 0Z" fill="#1A2539"/>
<path d="M38.3613 20.3314V13.8252H52.0023C53.7509 13.8252 55.1735 15.2846 55.1735 17.0783C55.1735 18.8721 53.7509 20.3314 52.0023 20.3314H38.3613Z" fill="#1A2539"/>
<path d="M12.1803 26.0047L10.1059 27.9422H26.9896C26.9789 27.3734 26.9165 26.7906 26.8099 26.25C26.7703 26.0547 26.7246 25.8625 26.6743 25.6734C26.4717 24.9187 26.1808 24.2016 25.8092 23.5375L30.5522 19.1797C31.8422 21.0812 32.7332 23.2891 33.0958 25.6734C33.1277 25.8625 33.1536 26.0562 33.1765 26.25C33.2465 26.8625 33.2831 27.4859 33.2831 28.1188C33.2831 28.3422 33.277 28.5609 33.2679 28.7828V30.5453C33.2679 32.4531 31.76 34 29.9003 34H0.0335085V30.9125C0.0335085 28.9969 0.820959 27.1719 2.20395 25.8844L6.40927 21.9672L10.8354 17.8453L12.8597 15.9594L18.5013 10.7062L22.961 6.47187H6.31483C6.34225 6.87969 6.39556 7.35781 6.47324 7.74844C6.51284 7.94375 6.55701 8.13437 6.60727 8.325C6.82203 9.12813 7.13884 9.8875 7.54399 10.5875L2.81015 14.9391C1.47894 13.0109 0.558983 10.7609 0.187343 8.32656C0.155358 8.13594 0.130988 7.94219 0.108141 7.75C0.0624477 7.35625 0.0319854 6.95625 0.0152311 6.55312H0V3.45469C0 1.54688 1.50941 0 3.36913 0H33.2816V3.525C33.2816 5.45156 32.4835 7.2875 31.0868 8.57656L25.0933 14.1031L20.5362 18.3047L17.2142 21.3672L12.1788 26.0078L12.1803 26.0047Z" fill="#1A2539"/>
</svg>
