<svg width="180" height="103" viewBox="0 0 180 103" fill="none" xmlns="http://www.w3.org/2000/svg">
<g clip-path="url(#clip0_692_867)">
<path d="M158.151 91.7694V75.3783L160.534 75.2354V87.0998L166.133 79.9525L169.373 79.7858L165.394 84.7412L169.873 91.7694H167.038L163.822 86.671L160.534 90.7687V91.7694H158.151Z" fill="#F18F01"/>
<path d="M153.634 94.8479C154.937 94.8479 155.993 93.8113 155.993 92.5325C155.993 91.2537 154.937 90.217 153.634 90.217C152.332 90.217 151.276 91.2537 151.276 92.5325C151.276 93.8113 152.332 94.8479 153.634 94.8479Z" fill="#F18F01"/>
<path d="M116.458 70.3185L116.577 42.0446C116.577 40.8008 116.943 39.5675 117.7 38.5804C118.71 37.2659 120.188 36.5327 121.833 36.5327H126.578L126.46 70.3212H116.461L116.458 70.3185Z" fill="#1A2539"/>
<path d="M171.769 23.4976L132.803 23.3797C131.088 23.3797 129.389 23.0128 128.028 22.2556C126.217 21.2468 125.206 19.7689 125.206 18.1234V13.3782L171.773 13.4961V23.495L171.769 23.4976Z" fill="#1A2539"/>
<path d="M153.592 70.4036L153.474 37.0346C153.474 35.5667 153.107 34.1112 152.35 32.9461C151.341 31.3948 149.863 30.5295 148.218 30.5295H143.473L143.59 70.4067H153.589L153.592 70.4036Z" fill="#1A2539"/>
<path d="M107.797 65.1489V70.4068H65.9475V64.983C65.9475 62.3449 68.0771 60.2017 70.6986 60.2017H102.879C105.591 60.2017 107.794 62.4186 107.794 65.1489H107.797Z" fill="#1A2539"/>
<path d="M116.458 13.3782V16.3968C116.458 20.7406 113.531 24.2693 109.927 24.2693H65.8618V13.3782H116.458Z" fill="#1A2539"/>
<path d="M65.9475 47.424V36.5327H89.3273C92.3236 36.5327 94.7616 38.9756 94.7616 41.9784C94.7616 44.981 92.3236 47.424 89.3273 47.424H65.9475Z" fill="#1A2539"/>
<path d="M20.927 56.9686L17.3628 60.2148H46.3708C46.3525 59.2619 46.2452 58.2854 46.062 57.3796C45.9939 57.0524 45.9154 56.7304 45.829 56.4136C45.4811 55.1492 44.9812 53.9475 44.3427 52.8349L52.4916 45.5335C54.7081 48.7195 56.239 52.4187 56.8618 56.4136C56.9168 56.7304 56.9612 57.055 57.0005 57.3796C57.1208 58.4059 57.1837 59.4504 57.1837 60.5107C57.1837 60.885 57.1732 61.2515 57.1575 61.6232V64.5763C57.1575 67.7728 54.5668 70.3646 51.3716 70.3646H0.057571V65.1916C0.057571 61.982 1.41049 58.9242 3.7866 56.767L11.0118 50.2039L18.6163 43.2978L22.0942 40.1379L31.787 31.3365L39.4492 24.2419H10.8495C10.8966 24.9251 10.9882 25.7263 11.1217 26.3807C11.1897 26.708 11.2656 27.0274 11.3519 27.3467C11.721 28.6924 12.2653 29.9647 12.9613 31.1375L4.82811 38.4285C2.54097 35.1979 0.960386 31.4281 0.321874 27.3493C0.26692 27.0299 0.22505 26.7054 0.185797 26.3833C0.107292 25.7237 0.054954 25.0534 0.0261686 24.378H0V19.1867C0 15.9902 2.59331 13.3984 5.7885 13.3984H57.181V19.3045C57.181 22.5324 55.8098 25.6084 53.4101 27.7682L43.1128 37.0278L35.2831 44.0674L29.5758 49.1986L20.9244 56.9739L20.927 56.9686Z" fill="#1A2539"/>
<path d="M176.042 11.9439C175.567 11.9439 175.122 11.855 174.708 11.6771C174.292 11.4992 173.925 11.2509 173.607 10.9322C173.288 10.6135 173.04 10.2466 172.862 9.83151C172.684 9.41641 172.595 8.97169 172.595 8.49735C172.595 8.02301 172.684 7.57827 172.862 7.16319C173.04 6.74812 173.288 6.38123 173.607 6.06252C173.925 5.7438 174.292 5.4955 174.708 5.31761C175.122 5.13973 175.567 5.05078 176.042 5.05078C176.516 5.05078 176.961 5.13973 177.376 5.31761C177.79 5.4955 178.157 5.7438 178.477 6.06252C178.795 6.38123 179.044 6.74812 179.222 7.16319C179.399 7.57827 179.488 8.02301 179.488 8.49735C179.488 8.97169 179.399 9.41641 179.222 9.83151C179.044 10.2466 178.795 10.6135 178.477 10.9322C178.157 11.2509 177.79 11.4992 177.376 11.6771C176.961 11.855 176.516 11.9439 176.042 11.9439ZM176.042 11.4325C176.583 11.4325 177.072 11.3028 177.509 11.0434C177.954 10.7765 178.306 10.4208 178.566 9.97604C178.832 9.53132 178.966 9.0384 178.966 8.49735C178.966 7.9563 178.832 7.46338 178.566 7.01866C178.306 6.57394 177.954 6.22188 177.509 5.96245C177.072 5.69562 176.583 5.56221 176.042 5.56221C175.5 5.56221 175.008 5.69562 174.563 5.96245C174.118 6.22188 173.763 6.57394 173.496 7.01866C173.236 7.46338 173.107 7.9563 173.107 8.49735C173.107 9.0384 173.236 9.53132 173.496 9.97604C173.763 10.4208 174.118 10.7765 174.563 11.0434C175.008 11.3028 175.5 11.4325 176.042 11.4325ZM174.674 10.443V6.55171H176.42C176.783 6.55171 177.065 6.63694 177.265 6.80742C177.472 6.9779 177.576 7.25214 177.576 7.63015C177.576 8.28238 177.272 8.63815 176.664 8.69747L177.554 10.443H176.942L176.097 8.71971H175.208V10.443H174.674ZM175.208 8.2194H176.353C176.545 8.2194 176.705 8.17866 176.831 8.0971C176.965 8.01555 177.031 7.85992 177.031 7.63015C177.031 7.4152 176.968 7.26697 176.842 7.18543C176.716 7.09649 176.553 7.05202 176.353 7.05202H175.208V8.2194Z" fill="#1A2539"/>
</g>
<defs>
<clipPath id="clip0_692_867">
<rect width="179.476" height="103" fill="white"/>
</clipPath>
</defs>
</svg>
